<?xml version="1.0" encoding="utf-8"?>
<?xml-stylesheet type="text/xsl" href="rss1.xsl"?>
<rss version="2.0" xmlns:atom="http://www.w3.org/2005/Atom" xmlns:content="http://purl.org/rss/1.0/modules/content/" xmlns:dc="http://purl.org/dc/elements/1.1/" xmlns:media="http://search.yahoo.com/mrss/">
<channel>
 <title>Getty</title>
 <link>http://www.gettyimg.com/</link>
 <atom:link href="http://www.gettyimg.com/" rel="self" type="application/rss+xml" />

 
                <item>
                <title><![CDATA[【PRORES HD】Nathy Peluso - Natikillah [Master Clean ProRes 1080p] - 2019]]></title>
                <link><![CDATA[https://sharemania.us/threads/nathy-peluso-natikillah-master-clean-prores-1080p-2019.222083/]]></link>
                <description><![CDATA[<article>
<blockquote class="messageText SelectQuoteContainer ugc baseHtml">
<div style="text-align: center"><img src="https://i.imgur.com/1Cq6Rjj.png" class="bbCodeImage LbImage" alt="[​IMG]" data-url="https://i.imgur.com/1Cq6Rjj.png" style=""><br>
<br>
<img src="https://i.imgur.com/iZQWVYt.png" class="bbCodeImage LbImage" alt="[​IMG]" data-url="https://i.imgur.com/iZQWVYt.png" style="">​</div><br>
<div class="ToggleTriggerAnchor bbCodeSpoilerContainer">
<button type="button" class="button bbCodeSpoilerButton ToggleTrigger Tooltip JsOnly" data-target="> .SpoilerTarget"><span>Spoiler: <span class="SpoilerTitle">MediaInfo</span></span></button>
<div class="SpoilerTarget bbCodeSpoilerText">
<div class="bbCodeBlock bbCodeCode">
<div class="type">Code:</div>
<pre>General
Complete name                  : Nathy Peluso - Natikillah [Master Clean ProRes 1080p] - 2019.mov
Format                         : MPEG-4
Format profile                 : QuickTime
Codec ID                       : qt   2005.03 (qt  )
File size                      : 4.38 GiB
Duration                       : 3 min 22 s
Overall bit rate mode          : Variable
Overall bit rate               : 186 Mb/s
Frame rate                     : 25.000 FPS
Encoded date                   : 2019-02-13 16:30:16 UTC
Tagged date                    : 2019-02-13 16:34:27 UTC
Writing library                : Apple QuickTime
TIM                            : 00:00:00:00
TSC                            : 25
TSZ                            : 1

Video
ID                             : 1
Format                         : ProRes
Format version                 : Version 0
Format profile                 : 422 HQ
Codec ID                       : apch
Duration                       : 3 min 22 s
Bit rate mode                  : Variable
Bit rate                       : 185 Mb/s
Width                          : 1 920 pixels
Height                         : 1 080 pixels
Display aspect ratio           : 16:9
Frame rate mode                : Constant
Frame rate                     : 25.000 FPS
Color space                    : YUV
Chroma subsampling             : 4:2:2
Scan type                      : Progressive
Bits/(Pixel*Frame)             : 3.567
Stream size                    : 4.35 GiB (99%)
Writing library                : Apple
Language                       : English
Encoded date                   : 2019-02-13 16:30:16 UTC
Tagged date                    : 2019-02-13 16:30:16 UTC
Color primaries                : BT.709
Transfer characteristics       : BT.709
Matrix coefficients            : BT.709

Audio
ID                             : 2
Format                         : PCM
Format settings                : Little / Signed
Codec ID                       : sowt
Duration                       : 3 min 22 s
Bit rate mode                  : Constant
Bit rate                       : 1 411.2 kb/s
Channel(s)                     : 2 channels
Channel layout                 : L R
Sampling rate                  : 44.1 kHz
Bit depth                      : 16 bits
Stream size                    : 34.0 MiB (1%)
Language                       : English
Encoded date                   : 2019-02-13 16:30:16 UTC
Tagged date                    : 2019-02-13 16:30:16 UTC

Other
ID                             : 3
Type                           : Time code
Format                         : QuickTime TC
Duration                       : 3 min 22 s
Frame rate                     : 25.000 FPS
Time code of first frame       : 00:00:00:00
Time code of last frame        : 00:03:21:24
Time code, stripped            : Yes
Language                       : English
Encoded date                   : 2019-02-13 16:30:16 UTC
Tagged date                    : 2019-02-13 16:30:16 UTC
</pre>
</div></div>
</div><br>
<div style="text-align: center"><b>DOWNLOAD LINK</b><br>
<img src="https://i.imgur.com/yRbU0vs.png" class="bbCodeImage LbImage" alt="[​IMG]" data-url="https://i.imgur.com/yRbU0vs.png" style=""><br>
<div class="bbCodeBlock bbCodeVfcHH HiddenContent">
<div class="attribution type">Hidden Content:</div>
<blockquote>You must either reply or click 'Like' to see the hidden information contained here.</blockquote>
</div></div>
<div class="messageTextEndMarker">&nbsp;</div>
</blockquote>
</article>]]></description>
                <author><![CDATA[ElFunadisimo]]></author>
                </item>

                </channel></rss>